# File created by Blade
# Date/Time:  Thu Jan 22 19:18:16 2015
# Frame Rate: 120.000 fps
#------------------------------------------------------
:FULLY-SPECIFIED
:DEGREES
1457
root 0.887372 32.270963 -0.239685 9.898795 -4.398374 0.466300
RightUpLeg -2.401172 -13.632801 -9.671134
RightLeg -2.980331 -0.000000 0.000000
RightFoot -8.390756 -3.448836 11.111083
RightToeBase 6.350044 -0.000000 -0.000000
LeftUpLeg -1.229098 13.985751 14.140997
LeftLeg 0.174009 -0.000000 -0.000000
LeftFoot -9.427867 3.749445 -27.264262
LeftToeBase 9.078169 -0.000000 -0.000000
Spine -9.456545 -1.430089 0.945646
RightShoulder -21.153786 -14.977372 -26.658975
RightArm 20.721097 27.939181 38.170876
RightForeArm -17.474047 0.000000 7.946294
RightHand 10.639502 -0.000000 12.042060
RightHandThumb1 -24.326973 -0.000000 -32.862282
LeftShoulder -26.098728 8.891116 29.041154
LeftArm 16.170954 -24.145953 -34.468142
LeftForeArm 29.186265 -0.000000 -0.806882
LeftHand -3.177521 -0.000000 -8.036330
LeftHandThumb1 -26.253704 0.000000 33.147579
Head -4.140481 5.573592 -1.299685
1458
root 0.890422 32.271935 -0.245511 9.852988 -4.413473 0.466823
RightUpLeg -2.368940 -13.655149 -9.683043
RightLeg -2.987545 -0.000000 0.000000
RightFoot -8.361146 -3.408010 11.126411
RightToeBase 6.402897 -0.000000 -0.000000
LeftUpLeg -1.192862 13.968515 14.143299
LeftLeg 0.181835 -0.000000 -0.000000
LeftFoot -9.438752 3.767874 -27.254864
LeftToeBase 9.085677 -0.000000 -0.000000
Spine -9.433687 -1.456486 0.924612
RightShoulder -21.152320 -14.957885 -26.658082
RightArm 20.754693 28.018571 38.091727
RightForeArm -17.532147 -0.000000 7.968765
RightHand 10.658794 -0.000000 11.995912
RightHandThumb1 -24.326973 -0.000000 -32.862282
LeftShoulder -26.114433 8.921684 29.120002
LeftArm 16.171464 -24.093844 -34.186971
LeftForeArm 28.988211 -0.000000 -0.909915
LeftHand -3.219439 -0.000000 -7.980939
LeftHandThumb1 -26.253704 0.000000 33.147579
Head -4.068065 5.576466 -1.245499
1459
root 0.892788 32.272639 -0.247925 9.790802 -4.415427 0.472633
RightUpLeg -2.295041 -13.681006 -9.702084
RightLeg -3.025421 -0.000000 0.000000
RightFoot -8.334889 -3.385976 11.117620
RightToeBase 6.401355 -0.000000 -0.000000
LeftUpLeg -1.135682 13.950458 14.148072
LeftLeg 0.183571 -0.000000 -0.000000
LeftFoot -9.440687 3.762626 -27.264683
LeftToeBase 9.116167 -0.000000 -0.000000
Spine -9.397532 -1.477867 0.897599
RightShoulder -21.174585 -14.941581 -26.677729
RightArm 20.776103 28.010616 37.972170
RightForeArm -17.543272 -0.000000 7.955897
RightHand 10.663112 -0.000000 12.019229
RightHandThumb1 -24.326973 -0.000000 -32.862282
LeftShoulder -26.078726 8.849022 29.232255
LeftArm 16.035988 -24.106789 -33.852492
LeftForeArm 28.902997 -0.000000 -0.949325
LeftHand -3.174614 -0.000000 -8.032175
LeftHandThumb1 -26.253704 0.000000 33.147579
Head -4.002724 5.559021 -1.198597
1460
root 0.896143 32.273704 -0.252082 9.746853 -4.419309 0.475001
RightUpLeg -2.260706 -13.723255 -9.713769
RightLeg -3.026944 -0.000000 0.000000
RightFoot -8.307453 -3.343916 11.118645
RightToeBase 6.443958 -0.000000 -0.000000
LeftUpLeg -1.098297 13.946244 14.149465
LeftLeg 0.182917 -0.000000 -0.000000
LeftFoot -9.431320 3.757610 -27.263068
LeftToeBase 9.098096 -0.000000 -0.000000
Spine -9.384775 -1.493959 0.883845
RightShoulder -21.170910 -14.921881 -26.708117
RightArm 20.718903 27.927736 37.759242
RightForeArm -17.439048 0.000000 7.988124
RightHand 10.673228 -0.000000 12.055650
RightHandThumb1 -24.326973 -0.000000 -32.862282
LeftShoulder -26.024665 8.770000 29.372094
LeftArm 15.859876 -24.145104 -33.527449
LeftForeArm 28.784604 -0.000000 -0.925767
LeftHand -3.230206 -0.000000 -8.046026
LeftHandThumb1 -26.253704 0.000000 33.147579
Head -3.918642 5.542937 -1.173312
1461
root 0.899967 32.274698 -0.257289 9.724354 -4.421950 0.484063
RightUpLeg -2.247713 -13.760471 -9.725836
RightLeg -3.037638 -0.000000 0.000000
RightFoot -8.275354 -3.326817 11.101910
RightToeBase 6.383846 -0.000000 -0.000000
LeftUpLeg -1.085274 13.938450 14.136904
LeftLeg 0.180156 -0.000000 -0.000000
LeftFoot -9.423414 3.767854 -27.239666
LeftToeBase 9.077106 -0.000000 -0.000000
Spine -9.380737 -1.504376 0.859208
RightShoulder -21.215479 -14.903580 -26.741505
RightArm 20.761219 27.933746 37.617545
RightForeArm -17.463096 -0.000000 7.944614
RightHand 10.739830 -0.000000 11.943039
RightHandThumb1 -24.326973 -0.000000 -32.862282
LeftShoulder -26.004804 8.685732 29.512724
LeftArm 15.723317 -24.192037 -33.205602
LeftForeArm 28.622766 -0.000000 -0.884441
LeftHand -3.393449 0.000000 -8.144216
LeftHandThumb1 -26.253704 0.000000 33.147579
Head -3.890830 5.512686 -1.153109
1462
root 0.904999 32.276272 -0.264226 9.709712 -4.425406 0.495343
RightUpLeg -2.249387 -13.737580 -9.746982
RightLeg -3.035353 -0.000000 0.000000
RightFoot -8.261562 -3.347647 11.108302
RightToeBase 6.370559 -0.000000 -0.000000
LeftUpLeg -1.089261 13.942367 14.115648
LeftLeg 0.187924 -0.000000 -0.000000
LeftFoot -9.420305 3.776025 -27.229103
LeftToeBase 9.087151 -0.000000 -0.000000
Spine -9.385770 -1.516958 0.841057
RightShoulder -21.232253 -14.862740 -26.798692
RightArm 20.734969 27.935375 37.454390
RightForeArm -17.476496 -0.000000 7.930780
RightHand 10.837499 0.000000 11.876823
RightHandThumb1 -24.326973 -0.000000 -32.862282
LeftShoulder -25.973260 8.617820 29.634389
LeftArm 15.596029 -24.238049 -32.871778
LeftForeArm 28.456904 -0.000000 -0.896789
LeftHand -3.477778 -0.000000 -8.085941
LeftHandThumb1 -26.253704 0.000000 33.147579
Head -3.859532 5.483442 -1.152510
1463
root 0.910111 32.277983 -0.269379 9.687277 -4.421996 0.507160
RightUpLeg -2.215475 -13.686429 -9.773440
RightLeg -3.075005 -0.000000 0.000000
RightFoot -8.235177 -3.398900 11.129954
RightToeBase 6.377147 -0.000000 -0.000000
LeftUpLeg -1.080586 13.952734 14.096879
LeftLeg 0.187559 -0.000000 -0.000000
LeftFoot -9.399648 3.765186 -27.208410
LeftToeBase 9.109019 -0.000000 -0.000000
Spine -9.388320 -1.538946 0.820885
RightShoulder -21.220627 -14.804999 -26.873604
RightArm 20.631448 27.895115 37.251385
RightForeArm -17.411616 -0.000000 7.981834
RightHand 10.813344 -0.000000 11.857177
RightHandThumb1 -24.326973 -0.000000 -32.862282
LeftShoulder -25.950777 8.596750 29.768201
LeftArm 15.500925 -24.339607 -32.583152
LeftForeArm 28.395102 -0.000000 -0.925694
LeftHand -3.519968 -0.000000 -7.961250
LeftHandThumb1 -26.253704 0.000000 33.147579
Head -3.816623 5.476841 -1.140651
1464
root 0.913918 32.279732 -0.275104 9.675059 -4.410007 0.509812
RightUpLeg -2.220290 -13.738514 -9.776121
RightLeg -3.058535 -0.000000 0.000000
RightFoot -8.211875 -3.370757 11.130884
RightToeBase 6.378948 -0.000000 -0.000000
LeftUpLeg -1.084063 13.967859 14.088952
LeftLeg 0.184138 -0.000000 -0.000000
LeftFoot -9.371482 3.744244 -27.189847
LeftToeBase 9.090433 -0.000000 -0.000000
Spine -9.403034 -1.542105 0.801227
RightShoulder -21.239986 -14.729713 -26.940016
RightArm 20.545899 27.903470 37.063012
RightForeArm -17.391895 0.000000 7.988337
RightHand 10.764805 -0.000000 11.777598
RightHandThumb1 -24.326973 -0.000000 -32.862282
LeftShoulder -25.945598 8.597004 29.895708
LeftArm 15.470833 -24.388817 -32.314036
LeftForeArm 28.194955 -0.000000 -0.900319
LeftHand -3.676600 -0.000000 -7.946493
LeftHandThumb1 -26.253704 0.000000 33.147579
Head -3.773854 5.443441 -1.110875
1465
root 0.918423 32.281795 -0.280681 9.673391 -4.404941 0.524002
RightUpLeg -2.228835 -13.725817 -9.796974
RightLeg -3.057664 -0.000000 0.000000
RightFoot -8.199266 -3.393495 11.129419
RightToeBase 6.376938 -0.000000 -0.000000
LeftUpLeg -1.092586 13.988476 14.064127
LeftLeg 0.173551 -0.000000 -0.000000
LeftFoot -9.338766 3.733289 -27.170376
LeftToeBase 9.109897 -0.000000 -0.000000
Spine -9.431556 -1.544305 0.776792
RightShoulder -21.243597 -14.669910 -26.987938
RightArm 20.444844 27.985620 36.871309
RightForeArm -17.383998 -0.000000 7.992235
RightHand 10.768528 -0.000000 11.594572
RightHandThumb1 -24.326973 -0.000000 -32.862282
LeftShoulder -25.967120 8.619333 29.986792
LeftArm 15.506266 -24.350557 -32.022537
LeftForeArm 27.973331 -0.000000 -0.991122
LeftHand -3.737894 -0.000000 -7.901357
LeftHandThumb1 -26.253704 0.000000 33.147579
Head -3.733391 5.393385 -1.092136
1466
root 0.922214 32.283820 -0.286205 9.668282 -4.383550 0.529554
RightUpLeg -2.229971 -13.731493 -9.805657
RightLeg -3.054226 -0.000000 0.000000
RightFoot -8.191075 -3.406283 11.158888
RightToeBase 6.425330 -0.000000 -0.000000
LeftUpLeg -1.102838 13.990594 14.052696
LeftLeg 0.162888 -0.000000 -0.000000
LeftFoot -9.315051 3.716410 -27.176328
LeftToeBase 9.157646 -0.000000 -0.000000
Spine -9.443436 -1.560667 0.758832
RightShoulder -21.306347 -14.652293 -27.011288
RightArm 20.485753 28.118910 36.754668
RightForeArm -17.445547 -0.000000 7.933067
RightHand 10.861255 -0.000000 11.416381
RightHandThumb1 -24.326973 -0.000000 -32.862282
LeftShoulder -25.981546 8.557933 30.137343
LeftArm 15.480927 -24.254383 -31.748440
LeftForeArm 27.695416 -0.000000 -1.072014
LeftHand -3.753943 -0.000000 -7.688517
LeftHandThumb1 -26.253704 0.000000 33.147579
Head -3.720029 5.355125 -1.057602
1467
root 0.925758 32.286113 -0.293597 9.663208 -4.361332 0.529240
RightUpLeg -2.230749 -13.672246 -9.811529
RightLeg -3.046581 -0.000000 0.000000
RightFoot -8.173398 -3.478594 11.180104
RightToeBase 6.734267 -0.000000 -0.000000
LeftUpLeg -1.115467 13.962642 14.052916
LeftLeg 0.155293 -0.000000 -0.000000
LeftFoot -9.292398 3.706557 -27.160818
LeftToeBase 9.136628 -0.000000 -0.000000
Spine -9.451520 -1.572219 0.755794
RightShoulder -21.346578 -14.601910 -27.056007
RightArm 20.432089 28.237204 36.619408
RightForeArm -17.420408 -0.000000 7.943275
RightHand 10.872316 0.000000 11.173701
RightHandThumb1 -24.326973 -0.000000 -32.862282
LeftShoulder -25.957468 8.453109 30.291058
LeftArm 15.347474 -24.179932 -31.463218
LeftForeArm 27.476594 0.000000 -1.051851
LeftHand -3.869001 -0.000000 -7.649105
LeftHandThumb1 -26.253704 0.000000 33.147579
Head -3.702760 5.310704 -1.046698
1468
root 0.930524 32.288932 -0.300247 9.648210 -4.342256 0.530826
RightUpLeg -2.234623 -13.662123 -9.822424
RightLeg -3.018724 -0.000000 0.000000
RightFoot -8.159737 -3.503086 11.196290
RightToeBase 6.748900 -0.000000 -0.000000
LeftUpLeg -1.116269 13.977568 14.047381
LeftLeg 0.145375 -0.000000 -0.000000
LeftFoot -9.247435 3.674216 -27.149051
LeftToeBase 9.107088 -0.000000 -0.000000
Spine -9.444795 -1.567931 0.747036
RightShoulder -21.406464 -14.567283 -27.086006
RightArm 20.381260 28.325152 36.482286
RightForeArm -17.356870 -0.000000 7.984153
RightHand 10.861952 -0.000000 11.072331
RightHandThumb1 -24.326973 -0.000000 -32.862282
LeftShoulder -25.949194 8.387267 30.442717
LeftArm 15.294361 -24.256851 -31.288635
LeftForeArm 27.346836 -0.000000 -1.064327
LeftHand -3.956546 0.000000 -7.484327
LeftHandThumb1 -26.253704 0.000000 33.147579
Head -3.696803 5.236160 -1.022088
